<?xml version="1.0" encoding="utf-8"?>
<!-- Generator: Adobe Illustrator 16.0.0, SVG Export Plug-In . SVG Version: 6.00 Build 0)  -->
<!DOCTYPE svg PUBLIC "-//W3C//DTD SVG 1.1//EN" "http://www.w3.org/Graphics/SVG/1.1/DTD/svg11.dtd">
<svg version="1.1" id="Layer_1" xmlns="http://www.w3.org/2000/svg" xmlns:xlink="http://www.w3.org/1999/xlink" x="0px" y="0px"
	 width="504px" height="110px" viewBox="0 0 504 144" enable-background="new 0 0 504 144" xml:space="preserve">
<g>
	<g>
		<g>
			<path fill="#838384" d="M116.935,26.607L116.935,26.607c0.188,0,0.358,0.025,0.523,0.08c1.869,0.606,3.374,5.171,2.523,14.005
				l-0.034,0.372l0.12,0.355c1.805,5.319,7.774,15.415,27.482,23.298c12.135,4.854,17.217,8.312,19.344,10.332
				c-0.835-0.468-2.038-0.87-3.691-1.258c-3.672-0.861-17.109-3.318-30.254-3.318c-11.259,0-19.431,1.82-24.284,5.414l-0.276,0.203
				l-0.178,0.292c-4.141,6.818-7.542,9.249-9.344,9.249c-0.188,0-0.358-0.023-0.525-0.079c-1.31-0.428-2.821-3.218-2.765-9.684
				c0.056-6.299,1.542-14.254,4.187-22.391C104.981,37.404,112.856,26.607,116.935,26.607 M168.374,78.04l0.08,0.425l2.901-0.147
				c0.018,0.188,0.047,0.384,0.074,0.59c0.053,0.354,0.139,0.812,0.243,1.387c0.189,1.038,0.372,2.12,0.529,3.227
				c-0.186-0.165-0.399-0.301-0.644-0.396c-0.335-0.127-0.676-0.194-1.015-0.194c-0.366,0-0.72,0.076-1.049,0.224l0.32-2.571
				l-2.45,0.908c-0.048-0.092-0.149-0.352-0.162-0.917c-0.015-0.69,0.055-1.095,0.114-1.301l0.295-0.213
				C167.97,78.801,168.232,78.444,168.374,78.04 M153.636,85.455c1.728,0,2.118,0.853,2.202,1.162l0.126,1.203l0.207,0.029
				l-0.047,0.561c-0.043,0.228-0.239,0.882-1.029,1.056l-1.4,0.307l0.031,1.434l0.029,1.517l0.013,0.472l-1.106,0.006v-1.209v-1.517
				l0.072-0.926l-0.827-0.511c-0.006-0.003-0.65-0.475-0.708-1.171c-0.04-0.53,0.117-1.282,0.562-1.764
				C152.158,85.673,152.788,85.455,153.636,85.455 M172.621,91.885c-0.363,4.519-2.032,8.24-6.44,9.148l-1.424,0.289l0.032,1.457
				l0.208,8.854l-1.258,0.194l-22.572,3.475l-1.48,0.229v1.398h-0.05v-1.339l-1.411-0.277l-13.341-2.59l-1.812-0.354V99.518v-0.743
				l7.371-0.041l0.619-0.006l0.478-0.393l2.464-2.023l1.333-1.094l7.104-0.042v1.304v1.746h1.744h20.164v0.372l2.05-0.369
				c0.186-0.032,4.605-0.87,5.881-5.063C172.302,93.082,172.448,92.599,172.621,91.885 M116.935,24.863
				c-5.458,0-13.605,11.984-18.832,28.075c-5.579,17.17-5.711,32.517-0.299,34.272c0.34,0.112,0.694,0.165,1.062,0.165
				c3.089,0,7.04-3.837,10.836-10.09c5.213-3.856,14.146-5.068,23.246-5.068c13.234,0,26.82,2.56,29.855,3.275
				c5.123,1.197,3.793,2.146,3.793,2.146s-1.202,0-1.137,2.974c0.049,2.324,1.267,2.631,1.901,2.631
				c0.223,0,0.375-0.042,0.375-0.042l-0.126,2.153c-1.104,1.015-3.408,1.28-5.53,1.28c-2.371,0-4.521-0.333-4.521-0.333
				s-0.442-2.593-3.919-2.593c-3.479,0-4.3,2.72-4.172,4.3c0.124,1.581,1.452,2.466,1.452,2.466v1.517h-0.696l-0.125,1.392
				l-20.359,0.127l0.063,1.516l3.098-0.062l-2.466,2.023l-10.591,0.062l-0.052,2.469h1.538v16.814h3.225v-1.896l13.341,2.593v1.643
				h3.54v-1.643l22.571-3.478v2.593h2.843l-0.314-13.405c11.694-2.4,7.145-20.545,6.623-24.088
				c-0.336-2.279,0.109-2.689,0.468-2.689c0.197,0,0.37,0.124,0.37,0.124c-0.415,0.755,0.107,1.301,0.81,1.301
				c0.266,0,0.558-0.077,0.833-0.254c0.925-0.572,0.688-3.105-1.576-3.105c-0.215,0-0.447,0.023-0.699,0.073
				c-2.908,0.569-3.194,4.047-3.194,4.047l-0.093-0.508c0,0,2.781-4.677-21.877-14.54c-19.457-7.783-24.947-17.729-26.478-22.24
				c0.825-8.572-0.407-14.754-3.72-15.831C117.656,24.917,117.301,24.863,116.935,24.863L116.935,24.863z M162.834,88.93
				c0.614,0,1.277-0.012,1.991-0.036c4.427-0.159,4.614-0.981,4.584-2.212c-0.026-1.062,0.39-2.005,1.134-2.005
				c0.118,0,0.246,0.023,0.382,0.076c0.98,0.378,0.665,4.678-0.315,7.904c-0.979,3.221-4.519,3.854-4.519,3.854v-0.032h-21.908
				v-1.516l12.834-0.032v-2.245H155.5l-0.031-1.516c2.125-0.466,2.383-2.53,2.383-2.53S159.646,88.93,162.834,88.93L162.834,88.93z"
				/>
		</g>
	</g>
	<path fill="#FFFFFF" d="M167.192,75.05c0.199,0.2,0.288,0.315,0.288,0.315C167.406,75.262,167.309,75.159,167.192,75.05z"/>
	<path d="M172.603,73.34c-2.91,0.569-3.196,4.049-3.196,4.049l-0.094-0.505c0,0,2.784-4.68-21.874-14.544
		c-19.457-7.784-24.947-17.727-26.477-22.24c0.823-8.572-0.407-14.753-3.724-15.831c-5.412-1.758-14.318,10.737-19.894,27.91
		c-5.58,17.17-5.713,32.516-0.302,34.273c3.212,1.044,7.654-2.932,11.899-9.922c2.513-1.861,5.891-3.107,9.733-3.896
		c15.725-3.237,39.251,1.132,43.368,2.097c5.122,1.2,3.794,2.152,3.794,2.152s-1.2,0-1.138,2.968
		c0.068,3.149,2.278,2.595,2.278,2.595l-0.13,2.147c-2.339,2.15-10.051,0.949-10.051,0.949s-0.442-2.592-3.92-2.592
		c-3.477,0-4.299,2.719-4.172,4.297c0.125,1.581,1.453,2.469,1.453,2.469v1.516h-0.693l-0.128,1.39l-20.358,0.13l0.063,1.516
		l3.099-0.064l-2.467,2.023l-10.591,0.064l-0.05,2.466h1.538v16.817h3.224v-1.894l13.341,2.589v1.644h3.539v-1.644l22.573-3.479
		v2.595h2.842l-0.314-13.404c11.698-2.404,7.147-20.549,6.623-24.088c-0.523-3.54,0.837-2.565,0.837-2.565
		c-0.569,1.038,0.633,1.681,1.645,1.05C175.89,75.743,175.51,72.772,172.603,73.34z M99.293,84.848
		c-4.458,0-3.889-5.498-3.889-5.498c0,2.654,2.595,10.335,12.173-3.038c9.61-13.415,12.199-37.933,12.199-37.933
		C117.976,68.44,103.75,84.848,99.293,84.848z M136.088,113.392l-13.086-2.561V99.547l13.086,0.853V113.392z M146.806,67.493
		c-14.511-4.268-23.331-11.38-23.331-11.38c7.02,5.025,16.692,7.966,16.692,7.966c-14.131-6.83-16.692-12.616-16.692-12.616
		c5.312,7.304,23.046,15.08,32.246,17.831c7.506,2.245,10.59,4.863,11.472,5.756C165.66,73.621,160.288,71.457,146.806,67.493z
		 M162.928,110.643l-22.001,2.749v-12.706l22.001-1.139V110.643z M169.851,91.896c-0.98,3.227-4.519,3.857-4.519,3.857v-0.035
		h-21.906v-1.516l12.833-0.03v-2.244h-1.517l-0.031-1.519c2.126-0.466,2.385-2.528,2.385-2.528s2.547,0.41,6.969,0.254
		c4.429-0.156,4.617-0.979,4.586-2.215c-0.03-1.232,0.538-2.307,1.519-1.929C171.149,84.376,170.831,88.673,169.851,91.896z"/>
	<path d="M134.606,135.766c-35.496,0-64.376-28.881-64.376-64.376c0-35.499,28.88-64.377,64.376-64.377
		c35.499,0,64.377,28.878,64.377,64.377C198.983,106.885,170.105,135.766,134.606,135.766z M134.606,10.132
		c-33.775,0-61.254,27.479-61.254,61.257c0,33.776,27.479,61.255,61.254,61.255c33.779,0,61.257-27.479,61.257-61.255
		C195.863,37.612,168.385,10.132,134.606,10.132z"/>
	<path d="M134.606,142.398c-39.153,0-71.009-31.856-71.009-71.009c0-39.156,31.856-71.011,71.009-71.011
		c39.156,0,71.012,31.854,71.012,71.011C205.618,110.542,173.762,142.398,134.606,142.398z M134.606,3.501
		c-37.434,0-67.887,30.454-67.887,67.889c0,37.434,30.454,67.889,67.887,67.889c37.436,0,67.89-30.455,67.89-67.889
		C202.496,33.955,172.042,3.501,134.606,3.501z"/>
	<g>
		<g>
			<path d="M222.391,63.139c-1.359-0.764-2.21-2.295-1.359-4.079l12.197-23.841c1.146-2.253,4.206-2.337,5.269,0l11.985,23.841
				c1.743,3.315-3.4,5.949-4.93,2.634l-1.87-3.74h-15.682l-1.829,3.74C225.494,63.139,223.92,63.437,222.391,63.139z
				 M240.666,52.345l-4.803-10.498l-5.226,10.498H240.666z"/>
			<path d="M271.984,36.28c0-1.402,1.189-2.593,2.68-2.593c1.359,0,2.506,1.19,2.506,2.593v21.292h11.559
				c4.164,0,4.25,5.567,0,5.567h-14.064c-1.49,0-2.68-1.062-2.68-2.593V36.28z"/>
			<path d="M316.438,63.139c-1.531,0-2.592-1.147-2.592-2.634V36.366c0-1.531,1.061-2.635,2.592-2.635h11.941
				c5.57,0,8.584,3.783,8.584,8.117c0,1.913-0.549,3.782-2.336,5.354c3.355,1.318,4.842,3.911,4.842,7.055
				c0,4.887-3.311,8.882-9.686,8.882H316.438z M328.379,38.916h-8.965v6.332h8.965c1.83,0,2.975-1.147,2.975-3.4
				C331.354,40.445,330.209,38.916,328.379,38.916z M319.414,57.954h10.369c4.93,0,4.93-7.521,0-7.521c-3.232,0-7.014,0-10.369,0
				V57.954z"/>
			<path d="M382.139,36.535c0-3.783,5.568-4.081,5.568,0v15.384c0,15.895-25.627,15.895-25.627,0V36.535
				c0-3.825,5.568-3.995,5.568,0v15.384c0,8.372,14.49,8.882,14.49,0V36.535z"/>
			<path d="M416.902,44.482v15.723c0,1.871-1.531,2.933-3.062,2.933c-1.355,0-2.547-1.062-2.547-2.933V36.28
				c0-2.211,1.869-2.932,2.547-2.932c1.234,0,1.957,0.721,2.68,1.529l9.35,12.622l9.688-13.089c1.404-1.743,4.846-1.062,4.846,1.87
				v23.925c0,1.871-1.191,2.933-2.547,2.933c-1.535,0-2.723-1.062-2.723-2.933V44.482l-7.053,8.925c-1.533,1.87-3.445,1.87-4.846,0
				L416.902,44.482z"/>
		</g>
		<g>
			<path d="M223.285,79.698c0-3.486,5.608-3.616,5.608,0v24.264c0,3.527-5.608,3.613-5.608,0V79.698z"/>
			<path d="M240.836,87.897v15.726c0,1.87-1.532,2.932-3.061,2.932c-1.361,0-2.548-1.062-2.548-2.932V79.698
				c0-2.213,1.868-2.936,2.548-2.936c1.232,0,1.955,0.723,2.678,1.531l9.35,12.623l9.691-13.089c1.401-1.746,4.844-1.065,4.844,1.87
				v23.925c0,1.87-1.189,2.932-2.549,2.932c-1.531,0-2.719-1.062-2.719-2.932V87.897l-7.057,8.925c-1.532,1.869-3.443,1.869-4.846,0
				L240.836,87.897z"/>
			<path d="M270.286,79.698c0-1.404,1.106-2.936,2.894-2.936h9.816c5.523,0,10.492,3.699,10.492,10.795
				c0,6.716-4.969,10.456-10.492,10.456h-7.098v5.609c0,1.87-1.191,2.932-2.719,2.932c-1.404,0-2.894-1.062-2.894-2.932V79.698z
				 M275.898,82.119v10.579h7.098c2.846,0,5.096-2.504,5.096-5.141c0-2.973-2.25-5.438-5.096-5.438H275.898z"/>
			<path d="M312.955,106.979c-7.863,0.342-16.021-4.887-16.021-15.299c0-10.455,8.158-15.599,16.021-15.599
				c7.438,0.383,15.213,5.527,15.213,15.599C328.168,101.753,320.393,106.979,312.955,106.979z M312.486,81.609
				c-4.758,0-9.943,3.356-9.943,10.071c0,6.672,5.186,10.072,9.943,10.072c4.887,0,10.113-3.4,10.113-10.072
				C322.6,84.966,317.373,81.609,312.486,81.609z"/>
			<path d="M339.004,103.794c0,3.695-5.652,3.822-5.652,0.083V79.739c0-1.486,1.145-2.593,2.549-2.593h11.305
				c10.795,0,13.004,14.449,3.996,18.062l5.652,6.884c2.209,3.271-2.213,6.417-4.762,3.188l-6.416-9.178h-6.672V103.794z
				 M339.004,91.212h8.201c5.525,0,5.867-8.925,0-8.925h-8.201V91.212z"/>
			<path d="M370.068,82.458h-7.438c-3.695,0-3.695-5.438,0-5.438h20.1c3.787,0,3.787,5.438,0,5.438h-7.051v21.463
				c0,3.695-5.611,3.781-5.611,0V82.458z"/>
			<path d="M392.211,106.555c-1.488,0-2.637-1.145-2.637-2.634V79.78c0-1.527,1.148-2.634,2.637-2.634h15.256
				c3.908,0,3.826,5.524,0,5.524h-12.24v6.376h10.709c3.785,0,3.785,5.568,0,5.568h-10.709v6.371h12.963
				c3.867,0,4.164,5.568,0,5.568H392.211z"/>
			<path d="M421.406,103.794c0,3.695-5.654,3.822-5.654,0.083V79.739c0-1.486,1.146-2.593,2.549-2.593h11.307
				c10.795,0,13.004,14.449,3.994,18.062l5.65,6.884c2.213,3.271-2.205,6.417-4.76,3.188l-6.418-9.178h-6.668V103.794z
				 M421.406,91.212h8.201c5.521,0,5.863-8.925,0-8.925h-8.201V91.212z"/>
		</g>
	</g>
</g>
</svg>
