<?xml version="1.0" encoding="utf-8"?>
<!-- Generator: Adobe Illustrator 16.0.0, SVG Export Plug-In . SVG Version: 6.00 Build 0)  -->
<!DOCTYPE svg PUBLIC "-//W3C//DTD SVG 1.1//EN" "http://www.w3.org/Graphics/SVG/1.1/DTD/svg11.dtd">
<svg version="1.1" id="Layer_1" xmlns="http://www.w3.org/2000/svg" xmlns:xlink="http://www.w3.org/1999/xlink" x="0px" y="0px"
	 width="360px" height="360px" viewBox="0 0 360 360" enable-background="new 0 0 360 360" xml:space="preserve">
<g>
	<g>
		<path fill="#838384" d="M73.107,144.56L73.107,144.56c0.148,0,0.284,0.02,0.415,0.062c1.479,0.48,2.67,4.094,1.997,11.084
			l-0.027,0.295l0.095,0.281c1.429,4.209,6.152,12.199,21.75,18.439c9.604,3.84,13.625,6.577,15.309,8.175
			c-0.661-0.369-1.613-0.688-2.922-0.994c-2.905-0.682-13.54-2.627-23.943-2.627c-8.911,0-15.378,1.441-19.219,4.283l-0.218,0.162
			l-0.142,0.23c-3.277,5.398-5.969,7.32-7.395,7.32c-0.148,0-0.284-0.02-0.415-0.062c-1.037-0.338-2.233-2.546-2.188-7.663
			c0.044-4.985,1.221-11.28,3.313-17.721C63.647,153.104,69.88,144.56,73.107,144.56 M113.817,185.266l0.062,0.334l2.296-0.117
			c0.015,0.149,0.037,0.305,0.059,0.467c0.042,0.281,0.109,0.643,0.192,1.098c0.149,0.822,0.294,1.679,0.419,2.554
			c-0.146-0.131-0.316-0.237-0.51-0.312c-0.265-0.102-0.535-0.154-0.803-0.154c-0.29,0-0.57,0.061-0.83,0.178l0.253-2.036
			l-1.938,0.719c-0.038-0.072-0.118-0.277-0.128-0.726c-0.012-0.547,0.043-0.865,0.09-1.03l0.233-0.169
			C113.497,185.867,113.705,185.584,113.817,185.266 M102.153,191.131c1.368,0,1.676,0.676,1.742,0.92l0.101,0.952l0.163,0.024
			l-0.037,0.442c-0.034,0.182-0.188,0.699-0.814,0.836l-1.107,0.244l0.024,1.133l0.023,1.201l0.01,0.374l-0.875,0.003v-0.955v-1.201
			l0.058-0.731l-0.655-0.405c-0.005-0.003-0.515-0.376-0.56-0.926c-0.032-0.42,0.092-1.016,0.444-1.397
			C100.983,191.304,101.482,191.131,102.153,191.131 M117.179,196.221c-0.287,3.575-1.608,6.521-5.097,7.239l-1.128,0.231
			l0.025,1.152l0.165,7.007l-0.996,0.153l-17.863,2.751l-1.171,0.181v1.105h-0.04v-1.06l-1.117-0.217l-10.559-2.052l-1.435-0.278
			v-10.174v-0.587l5.834-0.034l0.489-0.004l0.378-0.311l1.951-1.601l1.055-0.865l5.622-0.035v1.034v1.381h1.38h15.958v0.293
			l1.622-0.29c0.147-0.026,3.646-0.688,4.655-4.009C116.927,197.169,117.042,196.786,117.179,196.221 M73.107,143.179
			c-4.319,0-10.768,9.485-14.903,22.219c-4.415,13.589-4.521,25.733-0.237,27.124c0.27,0.088,0.551,0.131,0.841,0.131
			c2.445,0,5.571-3.038,8.575-7.984c4.126-3.053,11.196-4.013,18.397-4.013c10.474,0,21.226,2.027,23.628,2.591
			c4.054,0.95,3.002,1.701,3.002,1.701s-0.951,0-0.9,2.352c0.039,1.84,1.003,2.082,1.505,2.082c0.176,0,0.296-0.03,0.296-0.03
			l-0.101,1.702c-0.873,0.803-2.696,1.014-4.376,1.014c-1.877,0-3.579-0.265-3.579-0.265s-0.35-2.051-3.102-2.051
			c-2.753,0-3.403,2.151-3.302,3.401c0.099,1.252,1.149,1.952,1.149,1.952v1.201H99.45l-0.1,1.101l-16.112,0.101l0.05,1.2
			l2.452-0.05l-1.951,1.602l-8.382,0.049l-0.041,1.953h1.218v13.309h2.552v-1.501l10.559,2.052v1.301h2.801v-1.301l17.864-2.753
			v2.053h2.25l-0.249-10.608c9.256-1.901,5.654-16.261,5.241-19.064c-0.266-1.806,0.087-2.128,0.37-2.128
			c0.157,0,0.293,0.098,0.293,0.098c-0.327,0.598,0.085,1.029,0.641,1.029c0.21,0,0.441-0.062,0.66-0.199
			c0.731-0.456,0.544-2.459-1.248-2.459c-0.17,0-0.354,0.019-0.553,0.058c-2.302,0.45-2.528,3.202-2.528,3.202l-0.073-0.4
			c0,0,2.201-3.702-17.313-11.508c-15.399-6.161-19.744-14.031-20.955-17.601c0.652-6.785-0.322-11.677-2.945-12.529
			C73.679,143.222,73.397,143.179,73.107,143.179L73.107,143.179z M109.434,193.882c0.485,0,1.011-0.008,1.575-0.028
			c3.504-0.124,3.652-0.776,3.629-1.751c-0.021-0.841,0.309-1.587,0.897-1.588c0.094,0,0.195,0.021,0.303,0.062
			c0.775,0.3,0.525,3.703-0.25,6.255s-3.576,3.052-3.576,3.052v-0.024H94.673v-1.201l10.157-0.025v-1.775h-1.201l-0.024-1.201
			c1.682-0.369,1.886-2.001,1.886-2.001S106.91,193.882,109.434,193.882L109.434,193.882z"/>
	</g>
</g>
<path fill="#FFFFFF" d="M112.883,182.896c0.157,0.159,0.228,0.25,0.228,0.25C113.052,183.066,112.975,182.983,112.883,182.896z"/>
<path d="M117.164,181.545c-2.303,0.45-2.528,3.203-2.528,3.203l-0.075-0.4c0,0,2.203-3.703-17.312-11.509
	c-15.398-6.16-19.743-14.03-20.954-17.601c0.651-6.784-0.321-11.676-2.946-12.528c-4.283-1.391-11.332,8.498-15.744,22.088
	c-4.416,13.589-4.521,25.732-0.239,27.123c2.542,0.826,6.057-2.319,9.417-7.853c1.989-1.472,4.662-2.457,7.703-3.082
	c12.444-2.561,31.064,0.896,34.321,1.66c4.054,0.95,3.003,1.702,3.003,1.702s-0.95,0-0.9,2.351c0.053,2.492,1.803,2.052,1.803,2.052
	l-0.103,1.701c-1.851,1.701-7.955,0.75-7.955,0.75s-0.35-2.051-3.102-2.051s-3.402,2.152-3.303,3.402s1.15,1.952,1.15,1.952v1.2
	h-0.549l-0.102,1.101l-16.111,0.101l0.05,1.2l2.452-0.05l-1.952,1.601l-8.382,0.051l-0.04,1.951h1.217v13.31h2.552v-1.5
	l10.559,2.051v1.301h2.801v-1.301l17.864-2.753v2.053h2.249l-0.248-10.608c9.258-1.901,5.656-16.262,5.241-19.064
	c-0.414-2.801,0.663-2.03,0.663-2.03c-0.45,0.823,0.501,1.33,1.301,0.83C119.766,183.446,119.465,181.095,117.164,181.545z
	 M59.146,190.651c-3.527,0-3.077-4.353-3.077-4.353c0,2.102,2.055,8.181,9.635-2.402c7.605-10.618,9.654-30.021,9.654-30.021
	C73.932,177.667,62.673,190.651,59.146,190.651z M88.267,213.242l-10.357-2.026v-8.931l10.357,0.675V213.242z M96.749,176.917
	c-11.484-3.377-18.465-9.007-18.465-9.007c5.555,3.978,13.21,6.305,13.21,6.305c-11.183-5.404-13.21-9.983-13.21-9.983
	c4.204,5.78,18.239,11.934,25.52,14.11c5.94,1.776,8.381,3.85,9.079,4.555C111.67,181.767,107.418,180.055,96.749,176.917z
	 M109.507,211.065l-17.412,2.177v-10.057l17.412-0.9V211.065z M114.986,196.23c-0.775,2.552-3.575,3.052-3.575,3.052v-0.025H94.073
	v-1.2l10.156-0.023v-1.777h-1.201l-0.024-1.201c1.683-0.369,1.888-2.002,1.888-2.002s2.016,0.325,5.516,0.201
	c3.505-0.125,3.653-0.775,3.63-1.753c-0.024-0.975,0.426-1.825,1.201-1.525C116.014,190.277,115.762,193.679,114.986,196.23z"/>
<path d="M87.094,230.949c-28.093,0-50.948-22.856-50.948-50.949c0-28.093,22.855-50.949,50.948-50.949
	c28.094,0,50.949,22.855,50.949,50.949C138.043,208.093,115.188,230.949,87.094,230.949z M87.094,131.521
	c-26.73,0-48.478,21.748-48.478,48.479s21.747,48.479,48.478,48.479c26.732,0,48.479-21.748,48.479-48.479
	S113.826,131.521,87.094,131.521z"/>
<path d="M87.094,236.198c-30.987,0-56.198-25.21-56.198-56.198c0-30.988,25.211-56.198,56.198-56.198
	c30.988,0,56.199,25.21,56.199,56.198C143.293,210.988,118.082,236.198,87.094,236.198z M87.094,126.272
	c-29.626,0-53.728,24.102-53.728,53.728s24.102,53.729,53.728,53.729c29.627,0,53.729-24.103,53.729-53.729
	S116.721,126.272,87.094,126.272z"/>
<g>
	<g>
		<path d="M156.567,173.471c-1.076-0.605-1.749-1.816-1.076-3.229l9.653-18.868c0.907-1.783,3.329-1.85,4.17,0l9.485,18.868
			c1.379,2.624-2.691,4.708-3.902,2.085l-1.479-2.959h-12.411l-1.446,2.959C159.023,173.471,157.778,173.707,156.567,173.471z
			 M171.03,164.928l-3.801-8.308l-4.137,8.308H171.03z"/>
		<path d="M195.817,152.215c0-1.11,0.941-2.052,2.119-2.052c1.077,0,1.984,0.941,1.984,2.052v16.85h9.148
			c3.295,0,3.362,4.406,0,4.406h-11.133c-1.178,0-2.119-0.841-2.119-2.051V152.215z"/>
		<path d="M230.998,173.471c-1.211,0-2.051-0.908-2.051-2.085v-19.104c0-1.21,0.84-2.085,2.051-2.085h9.451
			c4.405,0,6.793,2.993,6.793,6.424c0,1.513-0.437,2.993-1.85,4.238c2.657,1.042,3.834,3.094,3.834,5.583
			c0,3.868-2.623,7.029-7.667,7.029H230.998z M240.449,154.3h-7.096v5.011h7.096c1.447,0,2.354-0.908,2.354-2.69
			C242.803,155.511,241.896,154.3,240.449,154.3z M233.354,169.368h8.206c3.9,0,3.9-5.953,0-5.953c-2.557,0-5.55,0-8.206,0V169.368z
			"/>
		<path d="M282.994,152.417c0-2.994,4.406-3.229,4.406,0v12.175c0,12.58-20.282,12.58-20.282,0v-12.175c0-3.027,4.406-3.162,4.406,0
			v12.175c0,6.626,11.47,7.03,11.47,0V152.417z"/>
		<path d="M310.506,158.706v12.444c0,1.48-1.211,2.321-2.422,2.321c-1.075,0-2.018-0.841-2.018-2.321v-18.935
			c0-1.75,1.479-2.321,2.018-2.321c0.976,0,1.547,0.571,2.119,1.21l7.399,9.989l7.668-10.359c1.11-1.379,3.834-0.84,3.834,1.48
			v18.935c0,1.48-0.94,2.321-2.018,2.321c-1.211,0-2.152-0.841-2.152-2.321v-12.444l-5.583,7.062c-1.211,1.48-2.725,1.48-3.834,0
			L310.506,158.706z"/>
	</g>
	<g>
		<path d="M157.274,186.576c0-2.76,4.439-2.86,4.439,0v19.203c0,2.792-4.439,2.859-4.439,0V186.576z"/>
		<path d="M171.165,193.066v12.444c0,1.48-1.212,2.321-2.422,2.321c-1.077,0-2.018-0.841-2.018-2.321v-18.935
			c0-1.75,1.479-2.322,2.018-2.322c0.976,0,1.547,0.572,2.119,1.211l7.399,9.99l7.669-10.359c1.109-1.38,3.834-0.842,3.834,1.48
			v18.935c0,1.48-0.941,2.321-2.018,2.321c-1.211,0-2.153-0.841-2.153-2.321v-12.444l-5.583,7.062c-1.212,1.48-2.725,1.48-3.835,0
			L171.165,193.066z"/>
		<path d="M194.473,186.576c0-1.111,0.875-2.322,2.288-2.322h7.77c4.372,0,8.307,2.927,8.307,8.543c0,5.314-3.935,8.273-8.307,8.273
			h-5.617v4.44c0,1.48-0.942,2.321-2.152,2.321c-1.11,0-2.288-0.841-2.288-2.321V186.576z M198.913,188.492v8.374h5.617
			c2.252,0,4.035-1.983,4.035-4.069c0-2.354-1.783-4.305-4.035-4.305H198.913z"/>
		<path d="M228.24,208.168c-6.223,0.269-12.68-3.868-12.68-12.108c0-8.273,6.457-12.344,12.68-12.344
			c5.887,0.303,12.041,4.372,12.041,12.344S234.127,208.168,228.24,208.168z M227.87,188.088c-3.767,0-7.869,2.658-7.869,7.972
			c0,5.28,4.103,7.972,7.869,7.972c3.868,0,8.005-2.691,8.005-7.972C235.875,190.746,231.738,188.088,227.87,188.088z"/>
		<path d="M248.856,205.645c0,2.927-4.473,3.027-4.473,0.067v-19.103c0-1.178,0.906-2.053,2.017-2.053h8.947
			c8.543,0,10.292,11.436,3.161,14.295l4.473,5.448c1.75,2.59-1.748,5.079-3.767,2.522l-5.079-7.264h-5.279V205.645z
			 M248.856,195.689h6.491c4.372,0,4.642-7.062,0-7.062h-6.491V195.689z"/>
		<path d="M273.442,188.761h-5.887c-2.925,0-2.925-4.305,0-4.305h15.908c2.995,0,2.995,4.305,0,4.305h-5.582v16.985
			c0,2.926-4.439,2.993-4.439,0V188.761z"/>
		<path d="M290.966,207.832c-1.178,0-2.086-0.908-2.086-2.086v-19.104c0-1.211,0.908-2.086,2.086-2.086h12.074
			c3.094,0,3.026,4.373,0,4.373h-9.688v5.045h8.476c2.995,0,2.995,4.406,0,4.406h-8.476v5.045h10.259c3.061,0,3.296,4.406,0,4.406
			H290.966z"/>
		<path d="M314.071,205.645c0,2.927-4.474,3.027-4.474,0.067v-19.103c0-1.178,0.906-2.053,2.017-2.053h8.947
			c8.543,0,10.292,11.436,3.161,14.295l4.473,5.448c1.75,2.59-1.747,5.079-3.767,2.522l-5.079-7.264h-5.278V205.645z
			 M314.071,195.689h6.49c4.372,0,4.642-7.062,0-7.062h-6.49V195.689z"/>
	</g>
</g>
</svg>
